<?xml version="1.0" standalone="no"?>
<!DOCTYPE svg PUBLIC "-//W3C//DTD SVG 20010904//EN"
 "http://www.w3.org/TR/2001/REC-SVG-20010904/DTD/svg10.dtd">
<svg version="1.0" xmlns="http://www.w3.org/2000/svg"
 width="1053.000000pt" height="1053.000000pt" viewBox="0 0 1053.000000 1053.000000"
 preserveAspectRatio="xMidYMid meet">
<metadata>
Created by potrace 1.14, written by Peter Selinger 2001-2017
</metadata>
<g transform="translate(0.000000,1053.000000) scale(0.100000,-0.100000)"
fill="#000000" stroke="none">
<path d="M3 5283 c-1 -2887 1 -5255 3 -5263 3 -13 595 -15 5254 -14 2887 0
5253 4 5257 8 5 4 8 2372 8 5262 l0 5254 -5261 0 -5261 0 0 -5247z m9942 4660
c7 -2 10 -1577 10 -4706 l0 -4702 -4703 -3 -4702 -2 0 37 c-1 48 -1 9354 0
9369 0 8 1291 11 4693 11 2580 0 4697 -1 4702 -4z"/>
<path d="M3849 9078 c0 -16 0 -260 0 -543 0 -283 0 -693 0 -910 l1 -395 1049
0 1049 0 -3 -1392 c-1 -766 -5 -1409 -9 -1428 -4 -19 -11 -66 -17 -105 -47
-316 -182 -565 -393 -724 -119 -90 -256 -150 -406 -177 -123 -22 -329 -26
-440 -9 -473 71 -821 484 -855 1015 -4 52 -8 101 -10 108 -4 9 -207 12 -976
12 l-972 0 7 -157 c3 -87 8 -171 10 -188 3 -16 10 -66 17 -110 62 -438 249
-891 527 -1277 45 -62 96 -129 112 -148 17 -19 52 -60 78 -90 255 -298 653
-591 1037 -763 191 -85 459 -173 587 -192 23 -4 45 -8 48 -10 8 -5 82 -17 185
-29 33 -4 71 -10 85 -13 54 -12 576 -10 670 2 52 7 118 15 145 19 392 48 837
206 1183 420 676 418 1140 1143 1281 1998 31 187 35 220 48 403 5 55 8 1137 8
2405 l0 2305 -2022 0 -2023 0 -1 -27z"/>
</g>
</svg>
